<svg width="31" height="31" viewBox="0 0 31 31" fill="none" xmlns="http://www.w3.org/2000/svg">
<path d="M26.75 0.0457153H4.25C2.18187 0.0457153 0.5 1.72759 0.5 3.79572V26.2957C0.5 28.3638 2.18187 30.0457 4.25 30.0457H26.75C28.8181 30.0457 30.5 28.3638 30.5 26.2957V3.79572C30.5 1.72759 28.8181 0.0457153 26.75 0.0457153Z" fill="#252525"/>
<path fill-rule="evenodd" clip-rule="evenodd" d="M19.4669 13.3388H17.0082V11.3935C17.0082 10.8565 17.4488 10.9071 17.9916 10.9071H18.9751V8.47546H17.0082C16.2257 8.47546 15.4752 8.78289 14.9219 9.33012C14.3686 9.87735 14.0578 10.6196 14.0578 11.3935V13.3388H12.0908V15.7704H14.0578V21.1201H17.0082V15.7704H18.4834L19.4669 13.3388Z" fill="white"/>
</svg>
