<svg width="88" height="62" viewBox="0 0 88 62" fill="none" xmlns="http://www.w3.org/2000/svg">
<path d="M24.7581 7.23815L19.5582 2.43828C19.1877 2.09625 18.6224 2.07978 18.2459 2.4153C2.71867 16.2546 -3.91595 48.4511 8.40964 56.3396C19.749 63.5969 34.4096 61.3396 37.4096 43.3396C39.7271 29.4351 28.2455 24.6678 21.6007 23.906C21.1853 23.8584 20.8284 23.5738 20.7447 23.1641C19.7052 18.0787 22.7911 11.7708 24.9078 8.56743C25.1868 8.14526 25.1299 7.58137 24.7581 7.23815Z" stroke="#292938" stroke-width="3"/>
<path d="M72.6682 7.23815L67.4684 2.43828C67.0978 2.09625 66.5325 2.07978 66.1561 2.4153C50.6288 16.2546 43.9942 48.4511 56.3198 56.3396C67.6592 63.5969 82.3198 61.3396 85.3198 43.3396C87.6372 29.4351 76.1556 24.6678 69.5109 23.906C69.0954 23.8584 68.7386 23.5738 68.6549 23.1641C67.6154 18.0787 70.7013 11.7708 72.818 8.56743C73.0969 8.14526 73.0401 7.58137 72.6682 7.23815Z" stroke="#292938" stroke-width="3"/>
</svg>
