<svg width="50" height="51" viewBox="0 0 50 51" fill="none" xmlns="http://www.w3.org/2000/svg">
<circle cx="25" cy="25.8396" r="25" fill="#1AAD57"/>
<g clip-path="url(#clip0_6_1135)">
<g filter="url(#filter0_i_6_1135)">
<path d="M21.4366 19.8492H19.6544C21.1396 18.5621 22.9218 17.869 24.902 17.869C25.199 17.869 25.496 17.869 25.7931 17.968C26.2881 18.067 26.7832 17.671 26.8822 17.0769C26.9812 16.5819 26.5851 16.0868 25.9911 15.9878C25.595 15.8888 25.298 15.8888 24.902 15.8888C22.5257 15.8888 20.2485 16.7799 18.4663 18.265V16.8789C18.4663 16.2848 18.0703 15.8888 17.4762 15.8888C16.8822 15.8888 16.4861 16.2848 16.4861 16.8789V20.8393C16.4861 21.4333 16.8822 21.8294 17.4762 21.8294H21.4366C22.0307 21.8294 22.4267 21.4333 22.4267 20.8393C22.4267 20.2452 22.0307 19.8492 21.4366 19.8492ZM19.9515 28.265C19.3574 28.265 18.9614 28.6611 18.9614 29.2551V31.0373C17.6742 29.5522 16.9812 27.77 16.9812 25.7898C16.9812 25.4928 16.9812 25.1957 17.0802 24.8987C17.1792 24.4036 16.7832 23.9086 16.1891 23.8096C15.694 23.7106 15.199 24.1066 15.1 24.7007C15.001 25.0967 15.001 25.3937 15.001 25.7898C15.001 28.166 15.8921 30.4433 17.3772 32.2254H15.9911C15.397 32.2254 15.001 32.6215 15.001 33.2155C15.001 33.8096 15.397 34.2056 15.9911 34.2056H19.9515C20.2485 34.2056 20.5455 34.0076 20.7436 33.8096C20.7436 33.7106 20.8426 33.6116 20.8426 33.5126C20.8426 33.4135 20.8426 33.4135 20.8426 33.3145V33.2155V29.2551C20.9416 28.6611 20.5455 28.265 19.9515 28.265ZM33.8129 19.3541C34.4069 19.3541 34.803 18.9581 34.803 18.364C34.803 17.77 34.4069 17.3739 33.8129 17.3739H29.8525C29.7535 17.3739 29.7535 17.3739 29.6544 17.3739C29.5554 17.3739 29.4564 17.473 29.3574 17.473C29.2584 17.572 29.1594 17.572 29.1594 17.671C29.1594 17.77 29.0604 17.869 29.0604 17.869C29.0604 17.968 29.0604 17.968 29.0604 18.067V18.166V22.1264C29.0604 22.7205 29.4564 23.1165 30.0505 23.1165C30.6445 23.1165 31.0406 22.7205 31.0406 22.1264V20.5423C32.3277 21.9284 33.0208 23.8096 33.0208 25.7898C33.0208 26.0868 33.0208 26.3838 32.9218 26.6809C32.8228 27.1759 33.2188 27.671 33.8129 27.77H33.9119C34.4069 27.77 34.803 27.3739 34.902 26.8789C34.902 26.4829 35.001 26.1858 35.001 25.7898C35.001 23.4135 34.1099 21.1363 32.6247 19.3541H33.8129ZM33.1198 30.2452C33.0208 30.1462 32.9218 30.0472 32.8228 29.9482C32.7237 29.8492 32.6247 29.8492 32.5257 29.8492H32.4267H32.3277H28.3673C27.7733 29.8492 27.3772 30.2452 27.3772 30.8393C27.3772 31.4333 27.7733 31.8294 28.3673 31.8294H30.1495C28.7634 33.1165 26.8822 33.8096 24.902 33.8096C24.6049 33.8096 24.3079 33.8096 24.0109 33.7106C23.5158 33.6116 23.0208 34.0076 22.9218 34.6017C22.8228 35.1957 23.2188 35.5918 23.8129 35.6908C24.2089 35.6908 24.5059 35.7898 24.902 35.7898C27.2782 35.7898 29.5554 34.8987 31.3376 33.4135V34.7007C31.3376 35.2947 31.7336 35.6908 32.3277 35.6908C32.9218 35.6908 33.3178 35.2947 33.3178 34.7007V30.7403C33.3178 30.5423 33.2188 30.3442 33.1198 30.2452Z" fill="#333363"/>
</g>
</g>
<defs>
<filter id="filter0_i_6_1135" x="15.001" y="15.8888" width="23" height="19.901" filterUnits="userSpaceOnUse" color-interpolation-filters="sRGB">
<feFlood flood-opacity="0" result="BackgroundImageFix"/>
<feBlend mode="normal" in="SourceGraphic" in2="BackgroundImageFix" result="shape"/>
<feColorMatrix in="SourceAlpha" type="matrix" values="0 0 0 0 0 0 0 0 0 0 0 0 0 0 0 0 0 0 127 0" result="hardAlpha"/>
<feOffset dx="3"/>
<feGaussianBlur stdDeviation="2.5"/>
<feComposite in2="hardAlpha" operator="arithmetic" k2="-1" k3="1"/>
<feColorMatrix type="matrix" values="0 0 0 0 0 0 0 0 0 0 0 0 0 0 0 0 0 0 0.5 0"/>
<feBlend mode="normal" in2="shape" result="effect1_innerShadow_6_1135"/>
</filter>
<clipPath id="clip0_6_1135">
<rect width="20" height="20" fill="white" transform="translate(15 15.8396)"/>
</clipPath>
</defs>
</svg>
