<svg width="31" height="31" viewBox="0 0 31 31" fill="none" xmlns="http://www.w3.org/2000/svg">
<path d="M23.7664 0.0457153H7.23363C3.51475 0.0457153 0.5 3.06047 0.5 6.77935V23.3121C0.5 27.031 3.51475 30.0457 7.23363 30.0457H23.7664C27.4852 30.0457 30.5 27.031 30.5 23.3121V6.77935C30.5 3.06047 27.4852 0.0457153 23.7664 0.0457153Z" fill="#252525"/>
<path d="M11.9963 13.0223H9.59579V20.0522H11.9963V13.0223Z" fill="white"/>
<path d="M11.5927 9.74166C11.3639 9.60313 11.0951 9.52919 10.82 9.52919C10.6365 9.52919 10.4548 9.56211 10.2854 9.62607C10.1159 9.69003 9.9621 9.78375 9.83271 9.90186C9.70332 10.02 9.60093 10.1601 9.53143 10.3143C9.46194 10.4684 9.4267 10.6335 9.42776 10.8001C9.42934 11.0497 9.51234 11.2933 9.66628 11.5001C9.82023 11.707 10.0382 11.8678 10.2928 11.9623C10.5473 12.0569 10.827 12.0809 11.0965 12.0313C11.3661 11.9817 11.6134 11.8608 11.8073 11.6838C12.0013 11.5068 12.1331 11.2816 12.1861 11.0367C12.2392 10.7918 12.2112 10.5381 12.1056 10.3076C12 10.0771 11.8215 9.88019 11.5927 9.74166Z" fill="white"/>
<path d="M15.8496 13.022H13.5371L13.5291 20.0664H15.9296V16.5878C15.9296 15.6727 16.1216 14.7867 17.3699 14.7867C18.6181 14.7867 18.6181 15.8397 18.6181 16.6531V20.0519H21.0186V16.1956C21.0186 14.3001 20.5305 12.8477 18.13 12.8477C17.6725 12.8314 17.2187 12.9282 16.8171 13.1278C16.4154 13.3273 16.081 13.6221 15.8496 13.9806V13.022Z" fill="white"/>
</svg>
