<svg width="31" height="21" viewBox="0 0 31 21" fill="none" xmlns="http://www.w3.org/2000/svg">
<path d="M20.4977 0.046824C18.7427 0.0443366 17.0183 0.506085 15.4993 1.38523C17.0199 2.2625 18.2825 3.52494 19.16 5.04543C20.0375 6.56591 20.4989 8.29076 20.4977 10.0463H10.501C10.501 12.0241 11.0875 13.9575 12.1864 15.602C13.2853 17.2464 14.8471 18.5281 16.6744 19.2848C18.5018 20.0416 20.5125 20.2395 22.4522 19.8534C24.392 19.4673 26.1738 18.5147 27.5721 17.116C28.9704 15.7173 29.9226 13.9353 30.3081 11.9954C30.6936 10.0555 30.4952 8.04486 29.7379 6.21774C28.9807 4.39063 27.6986 2.82912 26.0538 1.7307C24.4091 0.632273 22.4755 0.0462793 20.4977 0.046824V0.046824Z" fill="white"/>
<path d="M15.4993 1.38519C13.9787 2.26247 12.7161 3.52491 11.8386 5.0454C10.9611 6.56588 10.4998 8.29073 10.501 10.0462H20.4977C20.4989 8.29073 20.0375 6.56588 19.16 5.0454C18.2826 3.52491 17.0199 2.26247 15.4993 1.38519V1.38519Z" fill="url(#paint0_linear_6_1265)"/>
<path d="M15.4994 1.38519C17.02 2.26247 18.2826 3.52491 19.1601 5.04539C20.0376 6.56588 20.4989 8.29073 20.4977 10.0462H10.501C10.5003 11.8013 10.9619 13.5256 11.8394 15.0455C12.7168 16.5655 13.9792 17.8275 15.4994 18.7045C13.9793 19.5822 12.2549 20.0443 10.4996 20.0443C8.74433 20.0444 7.01996 19.5823 5.49982 18.7047C3.97969 17.8271 2.71735 16.5648 1.8397 15.0446C0.962048 13.5245 0.5 11.8002 0.5 10.0449C0.5 8.28958 0.962048 6.56522 1.8397 5.04509C2.71735 3.52497 3.97969 2.26266 5.49982 1.38503C7.01996 0.507402 8.74433 0.0453824 10.4996 0.0454102C12.2549 0.0454379 13.9793 0.507514 15.4994 1.38519V1.38519Z" fill="#1AAD57"/>
<defs>
<linearGradient id="paint0_linear_6_1265" x1="5.43378" y1="17.5562" x2="21.277" y2="2.37384" gradientUnits="userSpaceOnUse">
<stop stop-color="#FFCF8E"/>
<stop offset="1" stop-color="#FF8B79"/>
</linearGradient>
</defs>
</svg>
