<svg width="292" height="272" viewBox="0 0 292 272" fill="none" xmlns="http://www.w3.org/2000/svg">
<g filter="url(#filter0_dddddd_6_1198)">
<path d="M120.049 3.76665C120.348 2.84534 121.652 2.84534 121.951 3.76665L123.245 7.74943C123.379 8.16145 123.763 8.44041 124.196 8.44041H128.384C129.353 8.44041 129.755 9.68003 128.972 10.2494L125.584 12.7109C125.233 12.9656 125.087 13.4169 125.22 13.829L126.515 17.8117C126.814 18.733 125.759 19.4992 124.976 18.9298L121.588 16.4683C121.237 16.2136 120.763 16.2136 120.412 16.4683L117.024 18.9298C116.241 19.4992 115.186 18.733 115.485 17.8117L116.78 13.829C116.913 13.4169 116.767 12.9656 116.416 12.7109L113.028 10.2494C112.245 9.68003 112.647 8.44041 113.616 8.44041H117.804C118.237 8.44041 118.621 8.16145 118.755 7.74943L120.049 3.76665Z" fill="#1AAD57"/>
</g>
<g filter="url(#filter1_dddddd_6_1198)">
<path d="M140.049 3.76665C140.348 2.84534 141.652 2.84534 141.951 3.76665L143.245 7.74943C143.379 8.16145 143.763 8.44041 144.196 8.44041H148.384C149.353 8.44041 149.755 9.68003 148.972 10.2494L145.584 12.7109C145.233 12.9656 145.087 13.4169 145.22 13.829L146.515 17.8117C146.814 18.733 145.759 19.4992 144.976 18.9298L141.588 16.4683C141.237 16.2136 140.763 16.2136 140.412 16.4683L137.024 18.9298C136.241 19.4992 135.186 18.733 135.485 17.8117L136.78 13.829C136.913 13.4169 136.767 12.9656 136.416 12.7109L133.028 10.2494C132.245 9.68003 132.647 8.44041 133.616 8.44041H137.804C138.237 8.44041 138.621 8.16145 138.755 7.74943L140.049 3.76665Z" fill="#1AAD57"/>
</g>
<g filter="url(#filter2_dddddd_6_1198)">
<path d="M160.049 3.76665C160.348 2.84534 161.652 2.84534 161.951 3.76665L163.245 7.74943C163.379 8.16145 163.763 8.44041 164.196 8.44041H168.384C169.353 8.44041 169.755 9.68003 168.972 10.2494L165.584 12.7109C165.233 12.9656 165.087 13.4169 165.22 13.829L166.515 17.8117C166.814 18.733 165.759 19.4992 164.976 18.9298L161.588 16.4683C161.237 16.2136 160.763 16.2136 160.412 16.4683L157.024 18.9298C156.241 19.4992 155.186 18.733 155.485 17.8117L156.78 13.829C156.913 13.4169 156.767 12.9656 156.416 12.7109L153.028 10.2494C152.245 9.68003 152.647 8.44041 153.616 8.44041H157.804C158.237 8.44041 158.621 8.16145 158.755 7.74943L160.049 3.76665Z" fill="#1AAD57"/>
</g>
<g filter="url(#filter3_dddddd_6_1198)">
<path d="M180.049 3.76665C180.348 2.84534 181.652 2.84534 181.951 3.76665L183.245 7.74943C183.379 8.16145 183.763 8.44041 184.196 8.44041H188.384C189.353 8.44041 189.755 9.68003 188.972 10.2494L185.584 12.7109C185.233 12.9656 185.087 13.4169 185.22 13.829L186.515 17.8117C186.814 18.733 185.759 19.4992 184.976 18.9298L181.588 16.4683C181.237 16.2136 180.763 16.2136 180.412 16.4683L177.024 18.9298C176.241 19.4992 175.186 18.733 175.485 17.8117L176.78 13.829C176.913 13.4169 176.767 12.9656 176.416 12.7109L173.028 10.2494C172.245 9.68003 172.647 8.44041 173.616 8.44041H177.804C178.237 8.44041 178.621 8.16145 178.755 7.74943L180.049 3.76665Z" fill="#1AAD57"/>
</g>
<g filter="url(#filter4_dddddd_6_1198)">
<path d="M200.049 3.76665C200.348 2.84534 201.652 2.84534 201.951 3.76665L203.245 7.74943C203.379 8.16145 203.763 8.44041 204.196 8.44041H208.384C209.353 8.44041 209.755 9.68003 208.972 10.2494L205.584 12.7109C205.233 12.9656 205.087 13.4169 205.22 13.829L206.515 17.8117C206.814 18.733 205.759 19.4992 204.976 18.9298L201.588 16.4683C201.237 16.2136 200.763 16.2136 200.412 16.4683L197.024 18.9298C196.241 19.4992 195.186 18.733 195.485 17.8117L196.78 13.829C196.913 13.4169 196.767 12.9656 196.416 12.7109L193.028 10.2494C192.245 9.68003 192.647 8.44041 193.616 8.44041H197.804C198.237 8.44041 198.621 8.16145 198.755 7.74943L200.049 3.76665Z" fill="#1AAD57"/>
</g>
<defs>
<filter id="filter0_dddddd_6_1198" x="0.656921" y="1.26156" width="240.686" height="269.768" filterUnits="userSpaceOnUse" color-interpolation-filters="sRGB">
<feFlood flood-opacity="0" result="BackgroundImageFix"/>
<feColorMatrix in="SourceAlpha" type="matrix" values="0 0 0 0 0 0 0 0 0 0 0 0 0 0 0 0 0 0 127 0" result="hardAlpha"/>
<feOffset dy="2.5916"/>
<feGaussianBlur stdDeviation="2.20286"/>
<feColorMatrix type="matrix" values="0 0 0 0 0 0 0 0 0 0 0 0 0 0 0 0 0 0 0.0601852 0"/>
<feBlend mode="normal" in2="BackgroundImageFix" result="effect1_dropShadow_6_1198"/>
<feColorMatrix in="SourceAlpha" type="matrix" values="0 0 0 0 0 0 0 0 0 0 0 0 0 0 0 0 0 0 127 0" result="hardAlpha"/>
<feOffset dy="11.4031"/>
<feGaussianBlur stdDeviation="4.56122"/>
<feColorMatrix type="matrix" values="0 0 0 0 0 0 0 0 0 0 0 0 0 0 0 0 0 0 0.0981481 0"/>
<feBlend mode="normal" in2="effect1_dropShadow_6_1198" result="effect2_dropShadow_6_1198"/>
<feColorMatrix in="SourceAlpha" type="matrix" values="0 0 0 0 0 0 0 0 0 0 0 0 0 0 0 0 0 0 127 0" result="hardAlpha"/>
<feOffset dy="27.9893"/>
<feGaussianBlur stdDeviation="9.09653"/>
<feColorMatrix type="matrix" values="0 0 0 0 0 0 0 0 0 0 0 0 0 0 0 0 0 0 0.125 0"/>
<feBlend mode="normal" in2="effect2_dropShadow_6_1198" result="effect3_dropShadow_6_1198"/>
<feColorMatrix in="SourceAlpha" type="matrix" values="0 0 0 0 0 0 0 0 0 0 0 0 0 0 0 0 0 0 127 0" result="hardAlpha"/>
<feOffset dy="53.9054"/>
<feGaussianBlur stdDeviation="17.8302"/>
<feColorMatrix type="matrix" values="0 0 0 0 0 0 0 0 0 0 0 0 0 0 0 0 0 0 0.151852 0"/>
<feBlend mode="normal" in2="effect3_dropShadow_6_1198" result="effect4_dropShadow_6_1198"/>
<feColorMatrix in="SourceAlpha" type="matrix" values="0 0 0 0 0 0 0 0 0 0 0 0 0 0 0 0 0 0 127 0" result="hardAlpha"/>
<feOffset dy="90.7062"/>
<feGaussianBlur stdDeviation="32.7838"/>
<feColorMatrix type="matrix" values="0 0 0 0 0 0 0 0 0 0 0 0 0 0 0 0 0 0 0.189815 0"/>
<feBlend mode="normal" in2="effect4_dropShadow_6_1198" result="effect5_dropShadow_6_1198"/>
<feColorMatrix in="SourceAlpha" type="matrix" values="0 0 0 0 0 0 0 0 0 0 0 0 0 0 0 0 0 0 127 0" result="hardAlpha"/>
<feOffset dy="139.947"/>
<feGaussianBlur stdDeviation="55.9787"/>
<feColorMatrix type="matrix" values="0 0 0 0 0 0 0 0 0 0 0 0 0 0 0 0 0 0 0.25 0"/>
<feBlend mode="normal" in2="effect5_dropShadow_6_1198" result="effect6_dropShadow_6_1198"/>
<feBlend mode="normal" in="SourceGraphic" in2="effect6_dropShadow_6_1198" result="shape"/>
</filter>
<filter id="filter1_dddddd_6_1198" x="20.6569" y="1.26156" width="240.686" height="269.768" filterUnits="userSpaceOnUse" color-interpolation-filters="sRGB">
<feFlood flood-opacity="0" result="BackgroundImageFix"/>
<feColorMatrix in="SourceAlpha" type="matrix" values="0 0 0 0 0 0 0 0 0 0 0 0 0 0 0 0 0 0 127 0" result="hardAlpha"/>
<feOffset dy="2.5916"/>
<feGaussianBlur stdDeviation="2.20286"/>
<feColorMatrix type="matrix" values="0 0 0 0 0 0 0 0 0 0 0 0 0 0 0 0 0 0 0.0601852 0"/>
<feBlend mode="normal" in2="BackgroundImageFix" result="effect1_dropShadow_6_1198"/>
<feColorMatrix in="SourceAlpha" type="matrix" values="0 0 0 0 0 0 0 0 0 0 0 0 0 0 0 0 0 0 127 0" result="hardAlpha"/>
<feOffset dy="11.4031"/>
<feGaussianBlur stdDeviation="4.56122"/>
<feColorMatrix type="matrix" values="0 0 0 0 0 0 0 0 0 0 0 0 0 0 0 0 0 0 0.0981481 0"/>
<feBlend mode="normal" in2="effect1_dropShadow_6_1198" result="effect2_dropShadow_6_1198"/>
<feColorMatrix in="SourceAlpha" type="matrix" values="0 0 0 0 0 0 0 0 0 0 0 0 0 0 0 0 0 0 127 0" result="hardAlpha"/>
<feOffset dy="27.9893"/>
<feGaussianBlur stdDeviation="9.09653"/>
<feColorMatrix type="matrix" values="0 0 0 0 0 0 0 0 0 0 0 0 0 0 0 0 0 0 0.125 0"/>
<feBlend mode="normal" in2="effect2_dropShadow_6_1198" result="effect3_dropShadow_6_1198"/>
<feColorMatrix in="SourceAlpha" type="matrix" values="0 0 0 0 0 0 0 0 0 0 0 0 0 0 0 0 0 0 127 0" result="hardAlpha"/>
<feOffset dy="53.9054"/>
<feGaussianBlur stdDeviation="17.8302"/>
<feColorMatrix type="matrix" values="0 0 0 0 0 0 0 0 0 0 0 0 0 0 0 0 0 0 0.151852 0"/>
<feBlend mode="normal" in2="effect3_dropShadow_6_1198" result="effect4_dropShadow_6_1198"/>
<feColorMatrix in="SourceAlpha" type="matrix" values="0 0 0 0 0 0 0 0 0 0 0 0 0 0 0 0 0 0 127 0" result="hardAlpha"/>
<feOffset dy="90.7062"/>
<feGaussianBlur stdDeviation="32.7838"/>
<feColorMatrix type="matrix" values="0 0 0 0 0 0 0 0 0 0 0 0 0 0 0 0 0 0 0.189815 0"/>
<feBlend mode="normal" in2="effect4_dropShadow_6_1198" result="effect5_dropShadow_6_1198"/>
<feColorMatrix in="SourceAlpha" type="matrix" values="0 0 0 0 0 0 0 0 0 0 0 0 0 0 0 0 0 0 127 0" result="hardAlpha"/>
<feOffset dy="139.947"/>
<feGaussianBlur stdDeviation="55.9787"/>
<feColorMatrix type="matrix" values="0 0 0 0 0 0 0 0 0 0 0 0 0 0 0 0 0 0 0.25 0"/>
<feBlend mode="normal" in2="effect5_dropShadow_6_1198" result="effect6_dropShadow_6_1198"/>
<feBlend mode="normal" in="SourceGraphic" in2="effect6_dropShadow_6_1198" result="shape"/>
</filter>
<filter id="filter2_dddddd_6_1198" x="40.6569" y="1.26156" width="240.686" height="269.768" filterUnits="userSpaceOnUse" color-interpolation-filters="sRGB">
<feFlood flood-opacity="0" result="BackgroundImageFix"/>
<feColorMatrix in="SourceAlpha" type="matrix" values="0 0 0 0 0 0 0 0 0 0 0 0 0 0 0 0 0 0 127 0" result="hardAlpha"/>
<feOffset dy="2.5916"/>
<feGaussianBlur stdDeviation="2.20286"/>
<feColorMatrix type="matrix" values="0 0 0 0 0 0 0 0 0 0 0 0 0 0 0 0 0 0 0.0601852 0"/>
<feBlend mode="normal" in2="BackgroundImageFix" result="effect1_dropShadow_6_1198"/>
<feColorMatrix in="SourceAlpha" type="matrix" values="0 0 0 0 0 0 0 0 0 0 0 0 0 0 0 0 0 0 127 0" result="hardAlpha"/>
<feOffset dy="11.4031"/>
<feGaussianBlur stdDeviation="4.56122"/>
<feColorMatrix type="matrix" values="0 0 0 0 0 0 0 0 0 0 0 0 0 0 0 0 0 0 0.0981481 0"/>
<feBlend mode="normal" in2="effect1_dropShadow_6_1198" result="effect2_dropShadow_6_1198"/>
<feColorMatrix in="SourceAlpha" type="matrix" values="0 0 0 0 0 0 0 0 0 0 0 0 0 0 0 0 0 0 127 0" result="hardAlpha"/>
<feOffset dy="27.9893"/>
<feGaussianBlur stdDeviation="9.09653"/>
<feColorMatrix type="matrix" values="0 0 0 0 0 0 0 0 0 0 0 0 0 0 0 0 0 0 0.125 0"/>
<feBlend mode="normal" in2="effect2_dropShadow_6_1198" result="effect3_dropShadow_6_1198"/>
<feColorMatrix in="SourceAlpha" type="matrix" values="0 0 0 0 0 0 0 0 0 0 0 0 0 0 0 0 0 0 127 0" result="hardAlpha"/>
<feOffset dy="53.9054"/>
<feGaussianBlur stdDeviation="17.8302"/>
<feColorMatrix type="matrix" values="0 0 0 0 0 0 0 0 0 0 0 0 0 0 0 0 0 0 0.151852 0"/>
<feBlend mode="normal" in2="effect3_dropShadow_6_1198" result="effect4_dropShadow_6_1198"/>
<feColorMatrix in="SourceAlpha" type="matrix" values="0 0 0 0 0 0 0 0 0 0 0 0 0 0 0 0 0 0 127 0" result="hardAlpha"/>
<feOffset dy="90.7062"/>
<feGaussianBlur stdDeviation="32.7838"/>
<feColorMatrix type="matrix" values="0 0 0 0 0 0 0 0 0 0 0 0 0 0 0 0 0 0 0.189815 0"/>
<feBlend mode="normal" in2="effect4_dropShadow_6_1198" result="effect5_dropShadow_6_1198"/>
<feColorMatrix in="SourceAlpha" type="matrix" values="0 0 0 0 0 0 0 0 0 0 0 0 0 0 0 0 0 0 127 0" result="hardAlpha"/>
<feOffset dy="139.947"/>
<feGaussianBlur stdDeviation="55.9787"/>
<feColorMatrix type="matrix" values="0 0 0 0 0 0 0 0 0 0 0 0 0 0 0 0 0 0 0.25 0"/>
<feBlend mode="normal" in2="effect5_dropShadow_6_1198" result="effect6_dropShadow_6_1198"/>
<feBlend mode="normal" in="SourceGraphic" in2="effect6_dropShadow_6_1198" result="shape"/>
</filter>
<filter id="filter3_dddddd_6_1198" x="60.6569" y="1.26156" width="240.686" height="269.768" filterUnits="userSpaceOnUse" color-interpolation-filters="sRGB">
<feFlood flood-opacity="0" result="BackgroundImageFix"/>
<feColorMatrix in="SourceAlpha" type="matrix" values="0 0 0 0 0 0 0 0 0 0 0 0 0 0 0 0 0 0 127 0" result="hardAlpha"/>
<feOffset dy="2.5916"/>
<feGaussianBlur stdDeviation="2.20286"/>
<feColorMatrix type="matrix" values="0 0 0 0 0 0 0 0 0 0 0 0 0 0 0 0 0 0 0.0601852 0"/>
<feBlend mode="normal" in2="BackgroundImageFix" result="effect1_dropShadow_6_1198"/>
<feColorMatrix in="SourceAlpha" type="matrix" values="0 0 0 0 0 0 0 0 0 0 0 0 0 0 0 0 0 0 127 0" result="hardAlpha"/>
<feOffset dy="11.4031"/>
<feGaussianBlur stdDeviation="4.56122"/>
<feColorMatrix type="matrix" values="0 0 0 0 0 0 0 0 0 0 0 0 0 0 0 0 0 0 0.0981481 0"/>
<feBlend mode="normal" in2="effect1_dropShadow_6_1198" result="effect2_dropShadow_6_1198"/>
<feColorMatrix in="SourceAlpha" type="matrix" values="0 0 0 0 0 0 0 0 0 0 0 0 0 0 0 0 0 0 127 0" result="hardAlpha"/>
<feOffset dy="27.9893"/>
<feGaussianBlur stdDeviation="9.09653"/>
<feColorMatrix type="matrix" values="0 0 0 0 0 0 0 0 0 0 0 0 0 0 0 0 0 0 0.125 0"/>
<feBlend mode="normal" in2="effect2_dropShadow_6_1198" result="effect3_dropShadow_6_1198"/>
<feColorMatrix in="SourceAlpha" type="matrix" values="0 0 0 0 0 0 0 0 0 0 0 0 0 0 0 0 0 0 127 0" result="hardAlpha"/>
<feOffset dy="53.9054"/>
<feGaussianBlur stdDeviation="17.8302"/>
<feColorMatrix type="matrix" values="0 0 0 0 0 0 0 0 0 0 0 0 0 0 0 0 0 0 0.151852 0"/>
<feBlend mode="normal" in2="effect3_dropShadow_6_1198" result="effect4_dropShadow_6_1198"/>
<feColorMatrix in="SourceAlpha" type="matrix" values="0 0 0 0 0 0 0 0 0 0 0 0 0 0 0 0 0 0 127 0" result="hardAlpha"/>
<feOffset dy="90.7062"/>
<feGaussianBlur stdDeviation="32.7838"/>
<feColorMatrix type="matrix" values="0 0 0 0 0 0 0 0 0 0 0 0 0 0 0 0 0 0 0.189815 0"/>
<feBlend mode="normal" in2="effect4_dropShadow_6_1198" result="effect5_dropShadow_6_1198"/>
<feColorMatrix in="SourceAlpha" type="matrix" values="0 0 0 0 0 0 0 0 0 0 0 0 0 0 0 0 0 0 127 0" result="hardAlpha"/>
<feOffset dy="139.947"/>
<feGaussianBlur stdDeviation="55.9787"/>
<feColorMatrix type="matrix" values="0 0 0 0 0 0 0 0 0 0 0 0 0 0 0 0 0 0 0.25 0"/>
<feBlend mode="normal" in2="effect5_dropShadow_6_1198" result="effect6_dropShadow_6_1198"/>
<feBlend mode="normal" in="SourceGraphic" in2="effect6_dropShadow_6_1198" result="shape"/>
</filter>
<filter id="filter4_dddddd_6_1198" x="80.6569" y="1.26156" width="240.686" height="269.768" filterUnits="userSpaceOnUse" color-interpolation-filters="sRGB">
<feFlood flood-opacity="0" result="BackgroundImageFix"/>
<feColorMatrix in="SourceAlpha" type="matrix" values="0 0 0 0 0 0 0 0 0 0 0 0 0 0 0 0 0 0 127 0" result="hardAlpha"/>
<feOffset dy="2.5916"/>
<feGaussianBlur stdDeviation="2.20286"/>
<feColorMatrix type="matrix" values="0 0 0 0 0 0 0 0 0 0 0 0 0 0 0 0 0 0 0.0601852 0"/>
<feBlend mode="normal" in2="BackgroundImageFix" result="effect1_dropShadow_6_1198"/>
<feColorMatrix in="SourceAlpha" type="matrix" values="0 0 0 0 0 0 0 0 0 0 0 0 0 0 0 0 0 0 127 0" result="hardAlpha"/>
<feOffset dy="11.4031"/>
<feGaussianBlur stdDeviation="4.56122"/>
<feColorMatrix type="matrix" values="0 0 0 0 0 0 0 0 0 0 0 0 0 0 0 0 0 0 0.0981481 0"/>
<feBlend mode="normal" in2="effect1_dropShadow_6_1198" result="effect2_dropShadow_6_1198"/>
<feColorMatrix in="SourceAlpha" type="matrix" values="0 0 0 0 0 0 0 0 0 0 0 0 0 0 0 0 0 0 127 0" result="hardAlpha"/>
<feOffset dy="27.9893"/>
<feGaussianBlur stdDeviation="9.09653"/>
<feColorMatrix type="matrix" values="0 0 0 0 0 0 0 0 0 0 0 0 0 0 0 0 0 0 0.125 0"/>
<feBlend mode="normal" in2="effect2_dropShadow_6_1198" result="effect3_dropShadow_6_1198"/>
<feColorMatrix in="SourceAlpha" type="matrix" values="0 0 0 0 0 0 0 0 0 0 0 0 0 0 0 0 0 0 127 0" result="hardAlpha"/>
<feOffset dy="53.9054"/>
<feGaussianBlur stdDeviation="17.8302"/>
<feColorMatrix type="matrix" values="0 0 0 0 0 0 0 0 0 0 0 0 0 0 0 0 0 0 0.151852 0"/>
<feBlend mode="normal" in2="effect3_dropShadow_6_1198" result="effect4_dropShadow_6_1198"/>
<feColorMatrix in="SourceAlpha" type="matrix" values="0 0 0 0 0 0 0 0 0 0 0 0 0 0 0 0 0 0 127 0" result="hardAlpha"/>
<feOffset dy="90.7062"/>
<feGaussianBlur stdDeviation="32.7838"/>
<feColorMatrix type="matrix" values="0 0 0 0 0 0 0 0 0 0 0 0 0 0 0 0 0 0 0.189815 0"/>
<feBlend mode="normal" in2="effect4_dropShadow_6_1198" result="effect5_dropShadow_6_1198"/>
<feColorMatrix in="SourceAlpha" type="matrix" values="0 0 0 0 0 0 0 0 0 0 0 0 0 0 0 0 0 0 127 0" result="hardAlpha"/>
<feOffset dy="139.947"/>
<feGaussianBlur stdDeviation="55.9787"/>
<feColorMatrix type="matrix" values="0 0 0 0 0 0 0 0 0 0 0 0 0 0 0 0 0 0 0.25 0"/>
<feBlend mode="normal" in2="effect5_dropShadow_6_1198" result="effect6_dropShadow_6_1198"/>
<feBlend mode="normal" in="SourceGraphic" in2="effect6_dropShadow_6_1198" result="shape"/>
</filter>
</defs>
</svg>
