<svg width="292" height="272" viewBox="0 0 292 272" fill="none" xmlns="http://www.w3.org/2000/svg">
<g filter="url(#filter0_dddddd_6_1168)">
<path d="M90.0489 3.76665C90.3483 2.84534 91.6517 2.84534 91.9511 3.76665L93.2451 7.74943C93.379 8.16145 93.763 8.44041 94.1962 8.44041H98.3839C99.3527 8.44041 99.7554 9.68003 98.9717 10.2494L95.5838 12.7109C95.2333 12.9656 95.0866 13.4169 95.2205 13.829L96.5146 17.8117C96.8139 18.733 95.7595 19.4992 94.9757 18.9298L91.5878 16.4683C91.2373 16.2136 90.7627 16.2136 90.4122 16.4683L87.0243 18.9298C86.2405 19.4992 85.1861 18.733 85.4854 17.8117L86.7795 13.829C86.9134 13.4169 86.7667 12.9656 86.4162 12.7109L83.0283 10.2494C82.2446 9.68003 82.6473 8.44041 83.6161 8.44041H87.8038C88.237 8.44041 88.621 8.16145 88.7549 7.74943L90.0489 3.76665Z" fill="#1AAD57"/>
</g>
<g filter="url(#filter1_dddddd_6_1168)">
<path d="M110.049 3.76665C110.348 2.84534 111.652 2.84534 111.951 3.76665L113.245 7.74943C113.379 8.16145 113.763 8.44041 114.196 8.44041H118.384C119.353 8.44041 119.755 9.68003 118.972 10.2494L115.584 12.7109C115.233 12.9656 115.087 13.4169 115.22 13.829L116.515 17.8117C116.814 18.733 115.759 19.4992 114.976 18.9298L111.588 16.4683C111.237 16.2136 110.763 16.2136 110.412 16.4683L107.024 18.9298C106.241 19.4992 105.186 18.733 105.485 17.8117L106.78 13.829C106.913 13.4169 106.767 12.9656 106.416 12.7109L103.028 10.2494C102.245 9.68003 102.647 8.44041 103.616 8.44041H107.804C108.237 8.44041 108.621 8.16145 108.755 7.74943L110.049 3.76665Z" fill="#1AAD57"/>
</g>
<g filter="url(#filter2_dddddd_6_1168)">
<path d="M130.049 3.76665C130.348 2.84534 131.652 2.84534 131.951 3.76665L133.245 7.74943C133.379 8.16145 133.763 8.44041 134.196 8.44041H138.384C139.353 8.44041 139.755 9.68003 138.972 10.2494L135.584 12.7109C135.233 12.9656 135.087 13.4169 135.22 13.829L136.515 17.8117C136.814 18.733 135.759 19.4992 134.976 18.9298L131.588 16.4683C131.237 16.2136 130.763 16.2136 130.412 16.4683L127.024 18.9298C126.241 19.4992 125.186 18.733 125.485 17.8117L126.78 13.829C126.913 13.4169 126.767 12.9656 126.416 12.7109L123.028 10.2494C122.245 9.68003 122.647 8.44041 123.616 8.44041H127.804C128.237 8.44041 128.621 8.16145 128.755 7.74943L130.049 3.76665Z" fill="#1AAD57"/>
</g>
<g filter="url(#filter3_dddddd_6_1168)">
<path d="M150.049 3.76665C150.348 2.84534 151.652 2.84534 151.951 3.76665L153.245 7.74943C153.379 8.16145 153.763 8.44041 154.196 8.44041H158.384C159.353 8.44041 159.755 9.68003 158.972 10.2494L155.584 12.7109C155.233 12.9656 155.087 13.4169 155.22 13.829L156.515 17.8117C156.814 18.733 155.759 19.4992 154.976 18.9298L151.588 16.4683C151.237 16.2136 150.763 16.2136 150.412 16.4683L147.024 18.9298C146.241 19.4992 145.186 18.733 145.485 17.8117L146.78 13.829C146.913 13.4169 146.767 12.9656 146.416 12.7109L143.028 10.2494C142.245 9.68003 142.647 8.44041 143.616 8.44041H147.804C148.237 8.44041 148.621 8.16145 148.755 7.74943L150.049 3.76665Z" fill="#1AAD57"/>
</g>
<g filter="url(#filter4_dddddd_6_1168)">
<path d="M170.049 3.76665C170.348 2.84534 171.652 2.84534 171.951 3.76665L173.245 7.74943C173.379 8.16145 173.763 8.44041 174.196 8.44041H178.384C179.353 8.44041 179.755 9.68003 178.972 10.2494L175.584 12.7109C175.233 12.9656 175.087 13.4169 175.22 13.829L176.515 17.8117C176.814 18.733 175.759 19.4992 174.976 18.9298L171.588 16.4683C171.237 16.2136 170.763 16.2136 170.412 16.4683L167.024 18.9298C166.241 19.4992 165.186 18.733 165.485 17.8117L166.78 13.829C166.913 13.4169 166.767 12.9656 166.416 12.7109L163.028 10.2494C162.245 9.68003 162.647 8.44041 163.616 8.44041H167.804C168.237 8.44041 168.621 8.16145 168.755 7.74943L170.049 3.76665Z" fill="#1AAD57"/>
</g>
<defs>
<filter id="filter0_dddddd_6_1168" x="-29.3431" y="1.26156" width="240.686" height="269.768" filterUnits="userSpaceOnUse" color-interpolation-filters="sRGB">
<feFlood flood-opacity="0" result="BackgroundImageFix"/>
<feColorMatrix in="SourceAlpha" type="matrix" values="0 0 0 0 0 0 0 0 0 0 0 0 0 0 0 0 0 0 127 0" result="hardAlpha"/>
<feOffset dy="2.5916"/>
<feGaussianBlur stdDeviation="2.20286"/>
<feColorMatrix type="matrix" values="0 0 0 0 0 0 0 0 0 0 0 0 0 0 0 0 0 0 0.0601852 0"/>
<feBlend mode="normal" in2="BackgroundImageFix" result="effect1_dropShadow_6_1168"/>
<feColorMatrix in="SourceAlpha" type="matrix" values="0 0 0 0 0 0 0 0 0 0 0 0 0 0 0 0 0 0 127 0" result="hardAlpha"/>
<feOffset dy="11.4031"/>
<feGaussianBlur stdDeviation="4.56122"/>
<feColorMatrix type="matrix" values="0 0 0 0 0 0 0 0 0 0 0 0 0 0 0 0 0 0 0.0981481 0"/>
<feBlend mode="normal" in2="effect1_dropShadow_6_1168" result="effect2_dropShadow_6_1168"/>
<feColorMatrix in="SourceAlpha" type="matrix" values="0 0 0 0 0 0 0 0 0 0 0 0 0 0 0 0 0 0 127 0" result="hardAlpha"/>
<feOffset dy="27.9893"/>
<feGaussianBlur stdDeviation="9.09653"/>
<feColorMatrix type="matrix" values="0 0 0 0 0 0 0 0 0 0 0 0 0 0 0 0 0 0 0.125 0"/>
<feBlend mode="normal" in2="effect2_dropShadow_6_1168" result="effect3_dropShadow_6_1168"/>
<feColorMatrix in="SourceAlpha" type="matrix" values="0 0 0 0 0 0 0 0 0 0 0 0 0 0 0 0 0 0 127 0" result="hardAlpha"/>
<feOffset dy="53.9054"/>
<feGaussianBlur stdDeviation="17.8302"/>
<feColorMatrix type="matrix" values="0 0 0 0 0 0 0 0 0 0 0 0 0 0 0 0 0 0 0.151852 0"/>
<feBlend mode="normal" in2="effect3_dropShadow_6_1168" result="effect4_dropShadow_6_1168"/>
<feColorMatrix in="SourceAlpha" type="matrix" values="0 0 0 0 0 0 0 0 0 0 0 0 0 0 0 0 0 0 127 0" result="hardAlpha"/>
<feOffset dy="90.7062"/>
<feGaussianBlur stdDeviation="32.7838"/>
<feColorMatrix type="matrix" values="0 0 0 0 0 0 0 0 0 0 0 0 0 0 0 0 0 0 0.189815 0"/>
<feBlend mode="normal" in2="effect4_dropShadow_6_1168" result="effect5_dropShadow_6_1168"/>
<feColorMatrix in="SourceAlpha" type="matrix" values="0 0 0 0 0 0 0 0 0 0 0 0 0 0 0 0 0 0 127 0" result="hardAlpha"/>
<feOffset dy="139.947"/>
<feGaussianBlur stdDeviation="55.9787"/>
<feColorMatrix type="matrix" values="0 0 0 0 0 0 0 0 0 0 0 0 0 0 0 0 0 0 0.25 0"/>
<feBlend mode="normal" in2="effect5_dropShadow_6_1168" result="effect6_dropShadow_6_1168"/>
<feBlend mode="normal" in="SourceGraphic" in2="effect6_dropShadow_6_1168" result="shape"/>
</filter>
<filter id="filter1_dddddd_6_1168" x="-9.34308" y="1.26156" width="240.686" height="269.768" filterUnits="userSpaceOnUse" color-interpolation-filters="sRGB">
<feFlood flood-opacity="0" result="BackgroundImageFix"/>
<feColorMatrix in="SourceAlpha" type="matrix" values="0 0 0 0 0 0 0 0 0 0 0 0 0 0 0 0 0 0 127 0" result="hardAlpha"/>
<feOffset dy="2.5916"/>
<feGaussianBlur stdDeviation="2.20286"/>
<feColorMatrix type="matrix" values="0 0 0 0 0 0 0 0 0 0 0 0 0 0 0 0 0 0 0.0601852 0"/>
<feBlend mode="normal" in2="BackgroundImageFix" result="effect1_dropShadow_6_1168"/>
<feColorMatrix in="SourceAlpha" type="matrix" values="0 0 0 0 0 0 0 0 0 0 0 0 0 0 0 0 0 0 127 0" result="hardAlpha"/>
<feOffset dy="11.4031"/>
<feGaussianBlur stdDeviation="4.56122"/>
<feColorMatrix type="matrix" values="0 0 0 0 0 0 0 0 0 0 0 0 0 0 0 0 0 0 0.0981481 0"/>
<feBlend mode="normal" in2="effect1_dropShadow_6_1168" result="effect2_dropShadow_6_1168"/>
<feColorMatrix in="SourceAlpha" type="matrix" values="0 0 0 0 0 0 0 0 0 0 0 0 0 0 0 0 0 0 127 0" result="hardAlpha"/>
<feOffset dy="27.9893"/>
<feGaussianBlur stdDeviation="9.09653"/>
<feColorMatrix type="matrix" values="0 0 0 0 0 0 0 0 0 0 0 0 0 0 0 0 0 0 0.125 0"/>
<feBlend mode="normal" in2="effect2_dropShadow_6_1168" result="effect3_dropShadow_6_1168"/>
<feColorMatrix in="SourceAlpha" type="matrix" values="0 0 0 0 0 0 0 0 0 0 0 0 0 0 0 0 0 0 127 0" result="hardAlpha"/>
<feOffset dy="53.9054"/>
<feGaussianBlur stdDeviation="17.8302"/>
<feColorMatrix type="matrix" values="0 0 0 0 0 0 0 0 0 0 0 0 0 0 0 0 0 0 0.151852 0"/>
<feBlend mode="normal" in2="effect3_dropShadow_6_1168" result="effect4_dropShadow_6_1168"/>
<feColorMatrix in="SourceAlpha" type="matrix" values="0 0 0 0 0 0 0 0 0 0 0 0 0 0 0 0 0 0 127 0" result="hardAlpha"/>
<feOffset dy="90.7062"/>
<feGaussianBlur stdDeviation="32.7838"/>
<feColorMatrix type="matrix" values="0 0 0 0 0 0 0 0 0 0 0 0 0 0 0 0 0 0 0.189815 0"/>
<feBlend mode="normal" in2="effect4_dropShadow_6_1168" result="effect5_dropShadow_6_1168"/>
<feColorMatrix in="SourceAlpha" type="matrix" values="0 0 0 0 0 0 0 0 0 0 0 0 0 0 0 0 0 0 127 0" result="hardAlpha"/>
<feOffset dy="139.947"/>
<feGaussianBlur stdDeviation="55.9787"/>
<feColorMatrix type="matrix" values="0 0 0 0 0 0 0 0 0 0 0 0 0 0 0 0 0 0 0.25 0"/>
<feBlend mode="normal" in2="effect5_dropShadow_6_1168" result="effect6_dropShadow_6_1168"/>
<feBlend mode="normal" in="SourceGraphic" in2="effect6_dropShadow_6_1168" result="shape"/>
</filter>
<filter id="filter2_dddddd_6_1168" x="10.6569" y="1.26156" width="240.686" height="269.768" filterUnits="userSpaceOnUse" color-interpolation-filters="sRGB">
<feFlood flood-opacity="0" result="BackgroundImageFix"/>
<feColorMatrix in="SourceAlpha" type="matrix" values="0 0 0 0 0 0 0 0 0 0 0 0 0 0 0 0 0 0 127 0" result="hardAlpha"/>
<feOffset dy="2.5916"/>
<feGaussianBlur stdDeviation="2.20286"/>
<feColorMatrix type="matrix" values="0 0 0 0 0 0 0 0 0 0 0 0 0 0 0 0 0 0 0.0601852 0"/>
<feBlend mode="normal" in2="BackgroundImageFix" result="effect1_dropShadow_6_1168"/>
<feColorMatrix in="SourceAlpha" type="matrix" values="0 0 0 0 0 0 0 0 0 0 0 0 0 0 0 0 0 0 127 0" result="hardAlpha"/>
<feOffset dy="11.4031"/>
<feGaussianBlur stdDeviation="4.56122"/>
<feColorMatrix type="matrix" values="0 0 0 0 0 0 0 0 0 0 0 0 0 0 0 0 0 0 0.0981481 0"/>
<feBlend mode="normal" in2="effect1_dropShadow_6_1168" result="effect2_dropShadow_6_1168"/>
<feColorMatrix in="SourceAlpha" type="matrix" values="0 0 0 0 0 0 0 0 0 0 0 0 0 0 0 0 0 0 127 0" result="hardAlpha"/>
<feOffset dy="27.9893"/>
<feGaussianBlur stdDeviation="9.09653"/>
<feColorMatrix type="matrix" values="0 0 0 0 0 0 0 0 0 0 0 0 0 0 0 0 0 0 0.125 0"/>
<feBlend mode="normal" in2="effect2_dropShadow_6_1168" result="effect3_dropShadow_6_1168"/>
<feColorMatrix in="SourceAlpha" type="matrix" values="0 0 0 0 0 0 0 0 0 0 0 0 0 0 0 0 0 0 127 0" result="hardAlpha"/>
<feOffset dy="53.9054"/>
<feGaussianBlur stdDeviation="17.8302"/>
<feColorMatrix type="matrix" values="0 0 0 0 0 0 0 0 0 0 0 0 0 0 0 0 0 0 0.151852 0"/>
<feBlend mode="normal" in2="effect3_dropShadow_6_1168" result="effect4_dropShadow_6_1168"/>
<feColorMatrix in="SourceAlpha" type="matrix" values="0 0 0 0 0 0 0 0 0 0 0 0 0 0 0 0 0 0 127 0" result="hardAlpha"/>
<feOffset dy="90.7062"/>
<feGaussianBlur stdDeviation="32.7838"/>
<feColorMatrix type="matrix" values="0 0 0 0 0 0 0 0 0 0 0 0 0 0 0 0 0 0 0.189815 0"/>
<feBlend mode="normal" in2="effect4_dropShadow_6_1168" result="effect5_dropShadow_6_1168"/>
<feColorMatrix in="SourceAlpha" type="matrix" values="0 0 0 0 0 0 0 0 0 0 0 0 0 0 0 0 0 0 127 0" result="hardAlpha"/>
<feOffset dy="139.947"/>
<feGaussianBlur stdDeviation="55.9787"/>
<feColorMatrix type="matrix" values="0 0 0 0 0 0 0 0 0 0 0 0 0 0 0 0 0 0 0.25 0"/>
<feBlend mode="normal" in2="effect5_dropShadow_6_1168" result="effect6_dropShadow_6_1168"/>
<feBlend mode="normal" in="SourceGraphic" in2="effect6_dropShadow_6_1168" result="shape"/>
</filter>
<filter id="filter3_dddddd_6_1168" x="30.6569" y="1.26156" width="240.686" height="269.768" filterUnits="userSpaceOnUse" color-interpolation-filters="sRGB">
<feFlood flood-opacity="0" result="BackgroundImageFix"/>
<feColorMatrix in="SourceAlpha" type="matrix" values="0 0 0 0 0 0 0 0 0 0 0 0 0 0 0 0 0 0 127 0" result="hardAlpha"/>
<feOffset dy="2.5916"/>
<feGaussianBlur stdDeviation="2.20286"/>
<feColorMatrix type="matrix" values="0 0 0 0 0 0 0 0 0 0 0 0 0 0 0 0 0 0 0.0601852 0"/>
<feBlend mode="normal" in2="BackgroundImageFix" result="effect1_dropShadow_6_1168"/>
<feColorMatrix in="SourceAlpha" type="matrix" values="0 0 0 0 0 0 0 0 0 0 0 0 0 0 0 0 0 0 127 0" result="hardAlpha"/>
<feOffset dy="11.4031"/>
<feGaussianBlur stdDeviation="4.56122"/>
<feColorMatrix type="matrix" values="0 0 0 0 0 0 0 0 0 0 0 0 0 0 0 0 0 0 0.0981481 0"/>
<feBlend mode="normal" in2="effect1_dropShadow_6_1168" result="effect2_dropShadow_6_1168"/>
<feColorMatrix in="SourceAlpha" type="matrix" values="0 0 0 0 0 0 0 0 0 0 0 0 0 0 0 0 0 0 127 0" result="hardAlpha"/>
<feOffset dy="27.9893"/>
<feGaussianBlur stdDeviation="9.09653"/>
<feColorMatrix type="matrix" values="0 0 0 0 0 0 0 0 0 0 0 0 0 0 0 0 0 0 0.125 0"/>
<feBlend mode="normal" in2="effect2_dropShadow_6_1168" result="effect3_dropShadow_6_1168"/>
<feColorMatrix in="SourceAlpha" type="matrix" values="0 0 0 0 0 0 0 0 0 0 0 0 0 0 0 0 0 0 127 0" result="hardAlpha"/>
<feOffset dy="53.9054"/>
<feGaussianBlur stdDeviation="17.8302"/>
<feColorMatrix type="matrix" values="0 0 0 0 0 0 0 0 0 0 0 0 0 0 0 0 0 0 0.151852 0"/>
<feBlend mode="normal" in2="effect3_dropShadow_6_1168" result="effect4_dropShadow_6_1168"/>
<feColorMatrix in="SourceAlpha" type="matrix" values="0 0 0 0 0 0 0 0 0 0 0 0 0 0 0 0 0 0 127 0" result="hardAlpha"/>
<feOffset dy="90.7062"/>
<feGaussianBlur stdDeviation="32.7838"/>
<feColorMatrix type="matrix" values="0 0 0 0 0 0 0 0 0 0 0 0 0 0 0 0 0 0 0.189815 0"/>
<feBlend mode="normal" in2="effect4_dropShadow_6_1168" result="effect5_dropShadow_6_1168"/>
<feColorMatrix in="SourceAlpha" type="matrix" values="0 0 0 0 0 0 0 0 0 0 0 0 0 0 0 0 0 0 127 0" result="hardAlpha"/>
<feOffset dy="139.947"/>
<feGaussianBlur stdDeviation="55.9787"/>
<feColorMatrix type="matrix" values="0 0 0 0 0 0 0 0 0 0 0 0 0 0 0 0 0 0 0.25 0"/>
<feBlend mode="normal" in2="effect5_dropShadow_6_1168" result="effect6_dropShadow_6_1168"/>
<feBlend mode="normal" in="SourceGraphic" in2="effect6_dropShadow_6_1168" result="shape"/>
</filter>
<filter id="filter4_dddddd_6_1168" x="50.6569" y="1.26156" width="240.686" height="269.768" filterUnits="userSpaceOnUse" color-interpolation-filters="sRGB">
<feFlood flood-opacity="0" result="BackgroundImageFix"/>
<feColorMatrix in="SourceAlpha" type="matrix" values="0 0 0 0 0 0 0 0 0 0 0 0 0 0 0 0 0 0 127 0" result="hardAlpha"/>
<feOffset dy="2.5916"/>
<feGaussianBlur stdDeviation="2.20286"/>
<feColorMatrix type="matrix" values="0 0 0 0 0 0 0 0 0 0 0 0 0 0 0 0 0 0 0.0601852 0"/>
<feBlend mode="normal" in2="BackgroundImageFix" result="effect1_dropShadow_6_1168"/>
<feColorMatrix in="SourceAlpha" type="matrix" values="0 0 0 0 0 0 0 0 0 0 0 0 0 0 0 0 0 0 127 0" result="hardAlpha"/>
<feOffset dy="11.4031"/>
<feGaussianBlur stdDeviation="4.56122"/>
<feColorMatrix type="matrix" values="0 0 0 0 0 0 0 0 0 0 0 0 0 0 0 0 0 0 0.0981481 0"/>
<feBlend mode="normal" in2="effect1_dropShadow_6_1168" result="effect2_dropShadow_6_1168"/>
<feColorMatrix in="SourceAlpha" type="matrix" values="0 0 0 0 0 0 0 0 0 0 0 0 0 0 0 0 0 0 127 0" result="hardAlpha"/>
<feOffset dy="27.9893"/>
<feGaussianBlur stdDeviation="9.09653"/>
<feColorMatrix type="matrix" values="0 0 0 0 0 0 0 0 0 0 0 0 0 0 0 0 0 0 0.125 0"/>
<feBlend mode="normal" in2="effect2_dropShadow_6_1168" result="effect3_dropShadow_6_1168"/>
<feColorMatrix in="SourceAlpha" type="matrix" values="0 0 0 0 0 0 0 0 0 0 0 0 0 0 0 0 0 0 127 0" result="hardAlpha"/>
<feOffset dy="53.9054"/>
<feGaussianBlur stdDeviation="17.8302"/>
<feColorMatrix type="matrix" values="0 0 0 0 0 0 0 0 0 0 0 0 0 0 0 0 0 0 0.151852 0"/>
<feBlend mode="normal" in2="effect3_dropShadow_6_1168" result="effect4_dropShadow_6_1168"/>
<feColorMatrix in="SourceAlpha" type="matrix" values="0 0 0 0 0 0 0 0 0 0 0 0 0 0 0 0 0 0 127 0" result="hardAlpha"/>
<feOffset dy="90.7062"/>
<feGaussianBlur stdDeviation="32.7838"/>
<feColorMatrix type="matrix" values="0 0 0 0 0 0 0 0 0 0 0 0 0 0 0 0 0 0 0.189815 0"/>
<feBlend mode="normal" in2="effect4_dropShadow_6_1168" result="effect5_dropShadow_6_1168"/>
<feColorMatrix in="SourceAlpha" type="matrix" values="0 0 0 0 0 0 0 0 0 0 0 0 0 0 0 0 0 0 127 0" result="hardAlpha"/>
<feOffset dy="139.947"/>
<feGaussianBlur stdDeviation="55.9787"/>
<feColorMatrix type="matrix" values="0 0 0 0 0 0 0 0 0 0 0 0 0 0 0 0 0 0 0.25 0"/>
<feBlend mode="normal" in2="effect5_dropShadow_6_1168" result="effect6_dropShadow_6_1168"/>
<feBlend mode="normal" in="SourceGraphic" in2="effect6_dropShadow_6_1168" result="shape"/>
</filter>
</defs>
</svg>
