<svg width="113" height="30" viewBox="0 0 113 30" fill="none" xmlns="http://www.w3.org/2000/svg">
<path fill-rule="evenodd" clip-rule="evenodd" d="M10.9502 0.617188C9.3748 0.61835 8.09979 1.8943 8.10096 3.46657C8.09979 5.03885 9.37597 6.31479 10.9514 6.31596H13.8018V3.46773C13.803 1.89546 12.5268 0.619512 10.9502 0.617188C10.9514 0.617188 10.9514 0.617188 10.9502 0.617188V0.617188ZM10.9502 8.21709H3.35141C1.77599 8.21826 0.499815 9.4942 0.50098 11.0665C0.498651 12.6388 1.77482 13.9147 3.35024 13.917H10.9502C12.5256 13.9159 13.8018 12.6399 13.8006 11.0676C13.8018 9.4942 12.5256 8.21826 10.9502 8.21709V8.21709Z" fill="#DBDBDB"/>
<path fill-rule="evenodd" clip-rule="evenodd" d="M29.0009 11.0665C29.002 9.4942 27.7258 8.21826 26.1504 8.21709C24.575 8.21826 23.2988 9.4942 23.3 11.0665V13.917H26.1504C27.7258 13.9159 29.002 12.6399 29.0009 11.0665ZM21.4009 11.0665V3.46657C21.402 1.89546 20.127 0.619512 18.5516 0.617188C16.9762 0.61835 15.7 1.8943 15.7012 3.46657V11.0665C15.6988 12.6388 16.975 13.9147 18.5504 13.917C20.1259 13.9159 21.402 12.6399 21.4009 11.0665Z" fill="#DBDBDB"/>
<path fill-rule="evenodd" clip-rule="evenodd" d="M18.5496 29.1167C20.1251 29.1155 21.4012 27.8396 21.4001 26.2673C21.4012 24.695 20.1251 23.4191 18.5496 23.4179H15.6992V26.2673C15.6981 27.8384 16.9742 29.1144 18.5496 29.1167ZM18.5496 21.5156H26.1496C27.7251 21.5144 29.0012 20.2385 29.0001 18.6662C29.0024 17.0939 27.7262 15.818 26.1508 15.8157H18.5508C16.9754 15.8168 15.6992 17.0928 15.7004 18.6651C15.6992 20.2385 16.9742 21.5144 18.5496 21.5156V21.5156Z" fill="#DBDBDB"/>
<path fill-rule="evenodd" clip-rule="evenodd" d="M0.500977 18.6663C0.499813 20.2386 1.77599 21.5145 3.35141 21.5157C4.92683 21.5145 6.203 20.2386 6.20183 18.6663V15.8169H3.35141C1.77599 15.8181 0.499813 17.094 0.500977 18.6663ZM8.10096 18.6663V26.2662C8.09863 27.8385 9.3748 29.1144 10.9502 29.1167C12.5256 29.1156 13.8018 27.8396 13.8006 26.2674V18.6686C13.803 17.0963 12.5268 15.8204 10.9514 15.8181C9.3748 15.8181 8.09979 17.094 8.10096 18.6663C8.10096 18.6674 8.10096 18.6663 8.10096 18.6663Z" fill="#DBDBDB"/>
<path d="M37.373 21.2546L40.0746 19.6812C41.2621 21.4229 42.8058 22.2937 44.7058 22.2937C45.6361 22.2937 46.3683 22.1156 46.9027 21.7593C47.4569 21.3833 47.734 20.8885 47.734 20.275C47.734 19.7802 47.5064 19.3448 47.0512 18.9687C46.6157 18.5927 46.1506 18.3156 45.6558 18.1375C45.1611 17.9395 44.4189 17.6823 43.4293 17.3656C43.2512 17.3062 43.1225 17.2666 43.0433 17.2468C42.3308 17.0093 41.7272 16.7817 41.2324 16.564C40.7574 16.3265 40.2527 16.0198 39.7184 15.6437C39.184 15.2479 38.7783 14.763 38.5012 14.189C38.2241 13.5953 38.0855 12.9125 38.0855 12.1406C38.0855 10.6364 38.7189 9.42915 39.9855 8.51873C41.2522 7.60832 42.8256 7.15311 44.7058 7.15311C46.111 7.15311 47.4371 7.52915 48.684 8.28123C49.9308 9.01352 50.861 9.95363 51.4746 11.1015L48.9808 12.6156C47.8131 11.0125 46.398 10.2109 44.7355 10.2109C43.8251 10.2109 43.1225 10.3989 42.6277 10.775C42.1527 11.1312 41.9152 11.6062 41.9152 12.2C41.9152 12.6948 42.123 13.1401 42.5387 13.5359C42.9741 13.912 43.4194 14.189 43.8746 14.3672C44.3298 14.5453 44.973 14.7729 45.8043 15.05C46.022 15.1093 46.1803 15.1588 46.2793 15.1984C49.8022 16.3265 51.5636 18.0286 51.5636 20.3046C51.5636 21.7098 50.9699 22.9072 49.7824 23.8968C48.6147 24.8666 46.9522 25.3515 44.7949 25.3515C43.1324 25.3515 41.648 24.9854 40.3418 24.2531C39.0553 23.5208 38.0658 22.5213 37.373 21.2546Z" fill="#DBDBDB"/>
<path d="M54.8293 24.8171V0.5625H58.5699V24.8171H54.8293Z" fill="#DBDBDB"/>
<path d="M65.7542 20.0078C65.7542 20.6411 66.0016 21.1755 66.4964 21.6109C67.011 22.0265 67.6839 22.2343 68.5152 22.2343C69.7027 22.2343 70.712 21.8385 71.5433 21.0468C72.3943 20.2552 72.8198 19.2161 72.8198 17.9296V16.3562C71.9094 16.5739 70.811 16.7817 69.5245 16.9797C67.011 17.3755 65.7542 18.3849 65.7542 20.0078ZM61.9542 20.3343C61.9542 17.1083 64.349 15.139 69.1386 14.4265C70.8803 14.1692 72.1073 13.9317 72.8198 13.714V12.7937C72.8198 11.9625 72.523 11.3094 71.9292 10.8344C71.3355 10.3594 70.5438 10.1219 69.5542 10.1219C67.674 10.1219 66.0511 10.8937 64.6855 12.4375L62.3996 10.4781C63.2902 9.42915 64.349 8.61769 65.5761 8.04373C66.823 7.44999 68.1292 7.15311 69.4949 7.15311C72.048 7.15311 73.8688 7.77655 74.9573 9.02342C76.0459 10.2505 76.5901 11.9724 76.5901 14.189V24.8171H72.9386V22.6796C72.5823 23.4119 71.9589 24.0453 71.0683 24.5796C70.1975 25.0942 69.1683 25.3515 67.9808 25.3515C66.1006 25.3515 64.6261 24.8864 63.5574 23.9562C62.4886 23.026 61.9542 21.8187 61.9542 20.3343Z" fill="#DBDBDB"/>
<path d="M79.4698 16.2672C79.4698 13.5161 80.2021 11.3094 81.6667 9.64686C83.1511 7.98436 85.061 7.15311 87.3964 7.15311C89.0985 7.15311 90.5334 7.66769 91.7011 8.69686C92.8688 9.72602 93.6011 10.9036 93.8979 12.2297L90.6917 13.1203C90.4542 12.3682 90.0485 11.725 89.4745 11.1906C88.9005 10.6364 88.2177 10.3594 87.4261 10.3594C86.1396 10.3594 85.1302 10.9234 84.3979 12.0515C83.6854 13.1797 83.3292 14.5849 83.3292 16.2672C83.3292 18.1276 83.7151 19.5724 84.487 20.6015C85.2589 21.6307 86.2386 22.1453 87.4261 22.1453C88.2969 22.1453 89.0589 21.8484 89.712 21.2546C90.3849 20.6411 90.85 19.9484 91.1073 19.1765L94.3135 20.0968C93.9375 21.4822 93.1162 22.7093 91.8495 23.7781C90.5828 24.827 89.0985 25.3515 87.3964 25.3515C85.061 25.3515 83.1511 24.5302 81.6667 22.8875C80.2021 21.225 79.4698 19.0182 79.4698 16.2672Z" fill="#DBDBDB"/>
<path d="M97.1339 24.8171V0.5625H100.874V14.5156L106.96 7.68748H111.681L105.357 14.664L112.067 24.8171H107.673L102.923 17.3062L100.874 19.5625V24.8171H97.1339Z" fill="#DBDBDB"/>
</svg>
