<svg width="100" height="31" viewBox="0 0 100 31" fill="none" xmlns="http://www.w3.org/2000/svg">
<path d="M57.6531 1.85353V4.12681C57.6593 4.27926 57.725 4.4232 57.8362 4.52771C57.9473 4.63222 58.0951 4.68896 58.2476 4.68574H63.5279L57.444 13.392C57.0594 13.9516 57.0594 14.5807 57.0594 14.9303V17.2378C57.0594 17.5875 57.4438 17.937 57.7934 17.7622C61.2199 15.9091 65.3807 16.0839 68.4926 17.7272C68.877 17.9368 69.2267 17.5525 69.2267 17.2028V14.7902C69.1916 14.4756 69.0868 14.1259 68.7022 13.9161C66.9542 12.9374 64.8911 12.6577 62.933 12.6927L68.1776 5.21021C68.6672 4.51064 68.9469 4.09128 68.9469 3.7766V1.85353C68.9408 1.70099 68.8752 1.55691 68.764 1.45229C68.6528 1.34767 68.505 1.29085 68.3524 1.29406H58.2126C58.1381 1.29009 58.0636 1.30185 57.9939 1.32856C57.9242 1.35527 57.8609 1.39634 57.8082 1.4491C57.7554 1.50187 57.7143 1.56514 57.6876 1.63482C57.6609 1.7045 57.6492 1.77901 57.6531 1.85353Z" fill="#DBDBDB"/>
<path d="M17.6185 18.217H20.6954C20.8465 18.2224 20.9942 18.1719 21.1103 18.0752C21.2264 17.9784 21.3028 17.8422 21.3248 17.6927V9.30103C21.3248 9.24623 21.3247 9.19086 21.3246 9.13498C21.3226 7.30118 21.32 4.93042 23.4576 4.93042C25.4094 4.93042 25.3771 7.05625 25.3513 8.75592C25.3485 8.94399 25.3457 9.12685 25.3457 9.30103V17.6927C25.3457 17.9725 25.5905 18.2171 25.9052 18.2521H28.9821C29.1347 18.2553 29.2824 18.1985 29.3936 18.0939C29.5047 17.9893 29.5704 17.8452 29.5764 17.6927V9.30103C29.5764 9.22092 29.5761 9.13755 29.5759 9.05157C29.573 8.16188 29.5691 6.99241 29.8561 6.25914C30.0052 5.88627 30.26 5.56514 30.5893 5.33527C30.9186 5.10541 31.3079 4.97685 31.7093 4.96542C32.6184 4.96542 33.2828 5.2801 33.5274 6.32903C33.6371 6.82291 33.6177 7.96276 33.6043 8.75165C33.6006 8.96804 33.5973 9.15802 33.5973 9.30103V17.6927C33.5973 17.9725 33.8421 18.2171 34.1568 18.2521H37.1991C37.3517 18.2553 37.4995 18.1985 37.6106 18.0939C37.7218 17.9893 37.7874 17.8452 37.7935 17.6927V7.69274C37.7935 7.43794 37.7981 7.1785 37.8028 6.91706C37.8295 5.4206 37.8574 3.85879 37.0242 2.72778C36.1501 1.50396 34.7515 0.979492 33.4578 0.979492C31.6394 0.979492 29.9259 1.92353 29.1918 3.91649C28.3526 1.92353 27.1289 0.979492 25.2058 0.979492C23.3177 0.979492 21.8839 1.92353 21.1499 3.91649H21.08V1.85353C21.0687 1.71217 21.0051 1.5801 20.9017 1.48312C20.7982 1.38614 20.6623 1.33121 20.5205 1.32906H17.6534C17.5008 1.32588 17.353 1.38271 17.2419 1.48733C17.1307 1.59195 17.0651 1.73601 17.0591 1.88853V17.6926C17.0818 17.8293 17.1489 17.9547 17.25 18.0495C17.3511 18.1442 17.4806 18.2031 17.6185 18.217Z" fill="#DBDBDB"/>
<path fill-rule="evenodd" clip-rule="evenodd" d="M84.7509 9.89549C84.7509 4.89553 82.2684 0.979492 77.688 0.979492C73.2125 0.979492 70.7299 4.82553 70.7649 9.7556C70.7649 14.6507 73.2125 18.5667 77.688 18.5667C82.0237 18.5667 84.7509 14.7207 84.7509 9.89549ZM75.2754 9.26613C75.2754 7.34306 75.4152 4.23117 77.688 4.23117C78.667 4.23117 79.3663 4.65063 79.716 5.76956C80.1006 7.02838 80.1705 8.63667 80.1705 9.96538C80.1705 11.9933 80.0307 15.315 77.6531 15.315C75.2739 15.315 75.2749 11.303 75.2754 9.34749L75.2754 9.26613Z" fill="#DBDBDB"/>
<path d="M87.583 18.217H90.6599C90.8147 18.2156 90.9637 18.1585 91.0794 18.0556C91.1951 17.9528 91.2696 17.8115 91.2892 17.6579V9.12603C91.2892 8.0421 91.359 7.09774 91.7785 6.11903C92.1282 5.34967 92.8277 4.86031 93.5617 4.86031C95.5232 4.86031 95.5034 6.98964 95.4875 8.69164C95.4861 8.84034 95.4848 8.98577 95.4848 9.12624V17.7274C95.5198 17.972 95.7646 18.1817 96.0442 18.2167H99.1213C99.2634 18.223 99.4027 18.1765 99.5125 18.0861C99.6223 17.9958 99.6947 17.868 99.7158 17.7274V7.76242C99.7158 6.22392 99.7158 4.09107 98.9117 2.83235C98.0375 1.46853 96.6739 0.979171 95.3103 0.979171C93.1775 0.979171 91.9886 1.9931 91.1145 4.16096H91.0446V1.74842C91.0135 1.6221 90.942 1.50937 90.8411 1.42734C90.7401 1.3453 90.6151 1.29843 90.4851 1.29385H87.618C87.4724 1.29496 87.332 1.34863 87.2228 1.445C87.1136 1.54136 87.0428 1.67393 87.0236 1.81831V17.6576C87.0236 17.9373 87.2683 18.182 87.583 18.217Z" fill="#DBDBDB"/>
<path fill-rule="evenodd" clip-rule="evenodd" d="M52.3326 18.3352C52.4643 18.3227 52.5887 18.2691 52.6884 18.1821L52.6895 18.182C52.913 17.9958 53.1981 17.7524 53.5026 17.4923C54.056 17.0198 54.6736 16.4923 55.1021 16.1541C55.3468 15.9793 55.3119 15.6296 55.1021 15.3499C55.0347 15.253 54.9668 15.1587 54.8995 15.0652C54.408 14.3825 53.9483 13.7437 53.9483 12.4828V7.69264C53.9483 7.53255 53.9491 7.37334 53.95 7.21516C53.9601 5.37002 53.9694 3.66617 52.5847 2.37799C51.3958 1.22417 49.4379 0.8396 47.9344 0.8396C44.9974 0.8396 41.7456 1.92353 41.0463 5.55989C40.9764 5.94456 41.2562 6.11935 41.5009 6.18924L44.4729 6.50392C44.7527 6.50392 44.9275 6.22413 44.9974 5.94446C45.2422 4.68564 46.2911 4.09128 47.4799 4.09128C48.1087 4.09128 48.8081 4.33596 49.1927 4.89542C49.5945 5.45185 49.5864 6.19979 49.5791 6.87294C49.5782 6.96117 49.5772 7.04811 49.5772 7.13317V7.51774C49.2873 7.55186 48.9826 7.58412 48.6684 7.6174C47.05 7.78879 45.1785 7.98699 43.7731 8.60167C41.8495 9.44092 40.4859 11.1192 40.4859 13.6366C40.4859 16.8184 42.5139 18.4268 45.1013 18.4268C47.2691 18.4268 48.4929 17.9018 50.1712 16.1891C50.2529 16.3065 50.3272 16.4157 50.3975 16.5193C50.8093 17.1248 51.0885 17.5354 51.9543 18.252C52.0686 18.3186 52.2009 18.3477 52.3326 18.3352ZM49.5767 10.8525C49.5766 10.7904 49.5765 10.7278 49.5765 10.6647V10.0009C47.3387 10.0009 44.9961 10.4905 44.9961 13.1128C44.9961 14.4415 45.6953 15.3506 46.8842 15.3506C47.7583 15.3506 48.5277 14.8261 49.017 13.952C49.5799 12.925 49.5784 11.9613 49.5767 10.8525Z" fill="#DBDBDB"/>
<path fill-rule="evenodd" clip-rule="evenodd" d="M11.9131 18.3352C12.0448 18.3227 12.1692 18.2691 12.2689 18.1821L12.27 18.182C12.4935 17.9958 12.7786 17.7524 13.0831 17.4923C13.6365 17.0198 14.2541 16.4924 14.6826 16.1541C14.9273 15.9793 14.8924 15.6296 14.6826 15.3499C14.6152 15.253 14.5473 15.1587 14.48 15.0652C13.9885 14.3825 13.5288 13.7437 13.5288 12.4828V7.69264C13.5288 7.53256 13.5296 7.37334 13.5305 7.21516C13.5406 5.37002 13.5499 3.66617 12.1651 2.37799C10.9763 1.22417 9.01836 0.8396 7.51486 0.8396C4.57786 0.8396 1.32608 1.92353 0.626828 5.55989C0.556935 5.94456 0.83672 6.11935 1.0814 6.18924L4.0534 6.50392C4.33318 6.50392 4.50797 6.22413 4.57786 5.94446C4.82265 4.68564 5.87158 4.09128 7.0604 4.09128C7.68923 4.09128 8.38858 4.33596 8.77315 4.89542C9.17496 5.45185 9.16688 6.19979 9.15962 6.87295C9.15866 6.96117 9.15773 7.04811 9.15773 7.13317V7.51774C8.86783 7.55186 8.56312 7.58412 8.24886 7.6174C6.63049 7.78879 4.75901 7.98699 3.35362 8.60167C1.43001 9.44092 0.0664062 11.1192 0.0664062 13.6366C0.0664062 16.8184 2.09437 18.4268 4.6818 18.4268C6.84955 18.4268 8.07337 17.9018 9.75166 16.1891C9.83339 16.3065 9.90766 16.4157 9.97806 16.5193C10.3898 17.1248 10.669 17.5354 11.5348 18.252C11.6491 18.3186 11.7814 18.3477 11.9131 18.3352ZM9.19218 10.8525C9.19208 10.7904 9.19198 10.7278 9.19198 10.6647V10.0009C6.95423 10.0009 4.61159 10.4905 4.61159 13.1128C4.61159 14.4415 5.31084 15.3506 6.49966 15.3506C7.3738 15.3506 8.14316 14.8261 8.63252 13.952C9.19544 12.925 9.19392 11.9614 9.19218 10.8525Z" fill="#DBDBDB"/>
<path d="M64.296 21.5387C63.562 20.5947 59.4009 21.0841 57.5479 21.3289C56.9884 21.3988 56.8835 20.9094 57.408 20.5597C60.7296 18.217 66.1492 18.9163 66.7785 19.6855C67.4079 20.4548 66.6038 25.9089 63.4913 28.4966C63.002 28.8812 62.5473 28.6714 62.7573 28.147L62.7939 28.0555C63.5099 26.2669 65.0177 22.5007 64.296 21.5387Z" fill="#DBDBDB"/>
<path d="M61.8836 24.3011C56.1144 28.5671 47.7229 30.8396 40.4852 30.8396C30.3453 30.8396 21.2546 27.0984 14.3315 20.8747C13.8071 20.3853 14.2616 19.7209 14.9259 20.1054C22.3734 24.441 31.5692 27.0285 41.0795 27.0285C47.4781 27.0285 54.5409 25.6999 61.0444 22.9375C62.0231 22.553 62.8277 23.6019 61.8836 24.3011Z" fill="#DBDBDB"/>
</svg>
