<svg width="31" height="31" viewBox="0 0 31 31" fill="none" xmlns="http://www.w3.org/2000/svg">
<path d="M30.5 25.879C30.5 26.9841 30.061 28.0439 29.2796 28.8253C28.4982 29.6067 27.4384 30.0457 26.3333 30.0457H4.66667C3.5616 30.0457 2.50179 29.6067 1.72039 28.8253C0.938987 28.0439 0.5 26.9841 0.5 25.879V4.21238C0.5 3.10731 0.938987 2.04751 1.72039 1.2661C2.50179 0.484702 3.5616 0.0457153 4.66667 0.0457153H26.3333C27.4384 0.0457153 28.4982 0.484702 29.2796 1.2661C30.061 2.04751 30.5 3.10731 30.5 4.21238V25.879Z" fill="#252525"/>
<path d="M21.294 11.6411C20.8681 11.8362 20.3286 12.0194 19.8452 12.0803C20.3368 11.7788 21.1168 11.1509 21.294 10.5829C20.8347 10.8619 20.0041 11.1599 19.4622 11.2677C19.0295 10.7935 18.4122 10.5829 17.7284 10.5829C16.4147 10.5829 15.4986 11.7334 15.4986 13.0786V14.0768C13.5668 14.0768 11.6832 12.556 10.5111 11.082C10.2992 11.4535 10.1879 11.8771 10.189 12.3084C10.189 13.2163 10.996 14.1377 11.6349 14.5759C11.2452 14.5635 10.5072 14.256 10.1861 14.0768V14.1053C10.1861 15.2867 10.9883 16.0888 12.0754 16.3124C11.8769 16.3688 11.6349 16.5725 10.7038 16.5725C11.0061 17.5383 12.526 18.0489 13.5668 18.0699C12.7525 18.7222 11.3007 19.0681 10.1861 19.0681C9.99338 19.0681 9.88906 19.0791 9.70312 19.0566C10.755 19.7454 12.2241 20.0664 13.5668 20.0664C17.9409 20.0664 20.3281 16.6134 20.3281 13.393C20.3281 13.2872 20.3247 12.9328 20.3194 12.829C20.7869 12.4886 20.9762 12.1322 21.294 11.6411" fill="white"/>
</svg>
