<svg width="150" height="31" viewBox="0 0 150 31" fill="none" xmlns="http://www.w3.org/2000/svg">
<path d="M43.3666 17.0963C44.1289 16.4164 44.644 15.4068 44.9325 14.0469C45.0149 13.573 45.0767 13.0579 45.0767 12.5222C45.0767 11.9247 44.9531 11.2859 44.7059 10.6472C44.3968 9.84361 43.9847 9.41092 43.4902 9.3079C42.7484 9.16367 42.0273 9.57576 41.3474 10.5854C40.791 11.3683 40.4408 12.1925 40.2553 13.0373C40.1523 13.5112 40.1111 14.0263 40.1111 14.5414C40.1111 15.1389 40.2347 15.7777 40.482 16.4164C40.791 17.22 41.2031 17.6527 41.6976 17.7557C42.2127 17.8587 42.769 17.6321 43.3666 17.0963Z" fill="#DBDBDB"/>
<path d="M32.014 14.0469C31.7255 15.4068 31.2104 16.4164 30.448 17.0963C29.8505 17.6321 29.2942 17.8587 28.7791 17.7557C28.2846 17.6527 27.8725 17.22 27.5634 16.4164C27.3162 15.7777 27.1926 15.1389 27.1926 14.5414C27.1926 14.0263 27.2338 13.5112 27.3368 13.0373C27.5222 12.1925 27.8725 11.3683 28.4288 10.5854C29.1088 9.57576 29.8299 9.16367 30.5717 9.3079C31.0662 9.41092 31.4783 9.84361 31.7873 10.6472C32.0346 11.2859 32.1582 11.9247 32.1582 12.5222C32.1582 13.0579 32.117 13.573 32.014 14.0469Z" fill="#DBDBDB"/>
<path fill-rule="evenodd" clip-rule="evenodd" d="M5.39315 0.8396H46.4164C49.0125 0.8396 51.1142 2.94124 51.1142 5.53738V21.1967C51.1142 23.7928 49.0125 25.8945 46.4164 25.8945H31.7049L33.7241 30.8395L24.8436 25.8945H5.41376C2.81761 25.8945 0.715971 23.7928 0.715971 21.1967V5.53738C0.695366 2.96184 2.79701 0.8396 5.39315 0.8396ZM3.22973 5.10459C3.51819 4.7131 3.95088 4.50706 4.5278 4.46585C5.57862 4.38343 6.17614 4.87794 6.32037 5.94937C6.95911 10.2557 7.65966 13.9026 8.40141 16.8903L12.9138 8.29826C13.3258 7.51529 13.841 7.10321 14.4591 7.062C15.3657 7.00019 15.922 7.5771 16.1486 8.79276C16.6637 11.5331 17.3231 13.8614 18.106 15.8394C18.6418 10.6059 19.5484 6.83535 20.8258 4.50706C21.1349 3.93014 21.5882 3.64168 22.1857 3.60047C22.6596 3.55927 23.0923 3.7035 23.4838 4.01256C23.8753 4.32162 24.0813 4.7131 24.1225 5.187C24.1431 5.55788 24.0813 5.86695 23.9165 6.17601C23.1129 7.65953 22.4536 10.1526 21.9178 13.6142C21.4027 16.9727 21.2173 19.5894 21.3409 21.4644C21.3821 21.9795 21.2997 22.4328 21.0937 22.8243C20.8464 23.2776 20.4755 23.5249 20.0016 23.5661C19.4659 23.6073 18.9096 23.36 18.3739 22.8037C16.4577 20.8463 14.933 17.9205 13.8204 14.0263C12.4811 16.6636 11.4921 18.6416 10.8533 19.9603C9.63767 22.2886 8.60746 23.4836 7.74207 23.5455C7.18576 23.5867 6.71186 23.1128 6.29977 22.1238C5.24895 19.4246 4.11571 14.2117 2.90006 6.48508C2.83825 5.94937 2.94127 5.47546 3.22973 5.10459ZM47.5287 8.3395C46.7869 7.04143 45.6949 6.25846 44.232 5.9494C43.8405 5.86698 43.4696 5.82577 43.1193 5.82577C41.1413 5.82577 39.5342 6.85599 38.2773 8.91642C37.2059 10.6678 36.6702 12.6046 36.6702 14.7268C36.6702 16.3134 36.9998 17.6733 37.6592 18.8065C38.4009 20.1046 39.493 20.8875 40.9559 21.1966C41.3473 21.279 41.7182 21.3202 42.0685 21.3202C44.0671 21.3202 45.6743 20.29 46.9105 18.2296C47.9819 16.4576 48.5177 14.5208 48.5177 12.3986C48.5177 10.7914 48.188 9.45213 47.5287 8.3395ZM31.3134 5.9494C32.7557 6.25846 33.8684 7.04143 34.6101 8.3395C35.2695 9.45213 35.5991 10.7914 35.5991 12.3986C35.5991 14.5208 35.0634 16.4576 33.992 18.2296C32.7557 20.29 31.1486 21.3202 29.15 21.3202C28.7997 21.3202 28.4288 21.279 28.0373 21.1966C26.5744 20.8875 25.4824 20.1046 24.7406 18.8065C24.0813 17.6733 23.7516 16.3134 23.7516 14.7268C23.7516 12.6046 24.2874 10.6678 25.3588 8.91642C26.6156 6.85599 28.2228 5.82577 30.2008 5.82577C30.5511 5.82577 30.9219 5.86698 31.3134 5.9494Z" fill="#DBDBDB"/>
<path d="M54.2666 13.3466C54.2666 11.245 54.9465 9.51422 56.327 8.15434C57.7075 6.79445 59.4383 6.1145 61.5399 6.13511C62.3435 6.13511 63.1059 6.21753 63.7858 6.40297V9.74086C63.044 9.53482 62.3641 9.4318 61.7254 9.4318C60.7364 9.4318 59.9328 9.80268 59.2735 10.565C58.6347 11.3068 58.305 12.2752 58.305 13.4496C58.305 14.7065 58.6347 15.6955 59.2941 16.4373C59.9534 17.1584 60.8188 17.5293 61.9108 17.5293C62.4465 17.5293 63.0647 17.4263 63.7858 17.2202V20.5581C63.0028 20.7848 62.2817 20.8878 61.643 20.8878C59.4383 20.8878 57.6663 20.1873 56.3064 18.8068C54.9465 17.4263 54.2666 15.5925 54.2666 13.3466Z" fill="#DBDBDB"/>
<path fill-rule="evenodd" clip-rule="evenodd" d="M66.1759 8.0101C67.2473 6.75324 68.7308 6.1145 70.6264 6.1145C72.6457 6.1145 74.191 6.75324 75.283 8.0101C76.3544 9.28757 76.8901 11.1008 76.8901 13.4496C76.8901 15.7985 76.3544 17.6323 75.3036 18.9304C74.2528 20.2285 72.7487 20.8878 70.7913 20.8878C68.772 20.8878 67.2267 20.2285 66.1759 18.9304C65.1251 17.6323 64.5894 15.7573 64.5894 13.3054C64.5894 11.0389 65.1045 9.26697 66.1759 8.0101ZM70.6264 17.6941C71.327 17.6941 71.8833 17.4057 72.2542 16.8288C72.6251 16.2518 72.8311 15.098 72.8517 13.4084C72.8517 10.6681 72.1099 9.30817 70.6676 9.30817C69.2871 9.30817 68.6072 10.6475 68.6072 13.3466C68.6072 15.098 68.772 16.2518 69.1223 16.8288C69.4726 17.4057 69.9671 17.6941 70.6264 17.6941Z" fill="#DBDBDB"/>
<path d="M86.3269 9.65845L87.0687 6.50599H91.9725L93.8681 20.5375H90.1181L89.1085 10.8947L86.7596 20.5375H84.2047L81.7528 10.8741L80.7844 20.5375H77.1992L78.9918 6.50599H83.772C84.4519 9.53483 84.9876 12.131 85.3791 14.315L85.7912 12.131C85.9561 11.2862 86.1415 10.462 86.3269 9.65845Z" fill="#DBDBDB"/>
<path d="M103.49 9.65845L104.232 6.50599H109.115L111.011 20.5375H107.261L106.251 10.8947L103.923 20.5375H101.368L98.9162 10.8741L97.9478 20.5375H94.3626L96.1552 6.50599H100.935C101.615 9.53483 102.151 12.131 102.543 14.315L102.955 12.131C103.119 11.2862 103.305 10.462 103.49 9.65845Z" fill="#DBDBDB"/>
<path d="M119.253 14.995H115.894V17.5705H119.788V20.5581H112.103V6.52659H119.768V9.51422H115.894V12.0898H119.253V14.995Z" fill="#DBDBDB"/>
<path fill-rule="evenodd" clip-rule="evenodd" d="M131.059 10.7917C131.059 11.4716 130.853 12.131 130.461 12.7697C130.07 13.4084 129.493 13.8823 128.772 14.212L131.801 20.5375H127.803L124.733 14.1502H124.672V20.5375H120.88V6.50599H125.29C127.062 6.50599 128.483 6.89747 129.514 7.65983C130.544 8.42219 131.059 9.47301 131.059 10.7917ZM124.651 9.20515V12.5431C126.32 12.5225 127.165 12.0279 127.165 11.0595C127.165 10.4002 126.979 9.94691 126.588 9.65845C126.196 9.36999 125.558 9.22576 124.651 9.20515Z" fill="#DBDBDB"/>
<path d="M131.224 13.3466C131.224 11.245 131.904 9.51422 133.284 8.15434C134.665 6.79445 136.416 6.1145 138.497 6.13511C139.301 6.13511 140.063 6.21753 140.743 6.40297V9.74086C140.001 9.53482 139.321 9.4318 138.683 9.4318C137.693 9.4318 136.89 9.80268 136.231 10.565C135.592 11.3068 135.262 12.2752 135.262 13.4496C135.262 14.7065 135.592 15.6955 136.251 16.4373C136.911 17.1584 137.776 17.5293 138.868 17.5293C139.404 17.5293 140.022 17.4263 140.743 17.2202V20.5581C139.96 20.7848 139.239 20.8878 138.6 20.8878C136.395 20.8878 134.623 20.1873 133.264 18.8068C131.904 17.4263 131.224 15.5925 131.224 13.3466Z" fill="#DBDBDB"/>
<path d="M145.585 14.9744V17.5499H149.5V20.5375H141.814V6.50599H149.479V9.49362H145.585V12.0692H148.943V14.9744H145.585Z" fill="#DBDBDB"/>
</svg>
